<svg width="53" height="44" viewBox="0 0 53 44" fill="none" xmlns="http://www.w3.org/2000/svg">
<path d="M6.6198 16.6085C6.89131 16.5673 7.1701 16.5455 7.45374 16.5455H45.7859C46.0695 16.5455 46.3483 16.5673 46.6198 16.6085M6.6198 16.6085C5.20104 16.8282 3.92612 17.5984 3.07156 18.752C2.217 19.9057 1.85172 21.3497 2.05495 22.7709L4.13252 37.3164C4.31808 38.6161 4.96621 39.8053 5.95793 40.6656C6.94965 41.526 8.21841 41.9998 9.53131 42H43.7107C45.0236 41.9998 46.2924 41.526 47.2841 40.6656C48.2758 39.8053 48.9239 38.6161 49.1095 37.3164L51.1871 22.7709C51.3903 21.3497 51.025 19.9057 50.1705 18.752C49.3159 17.5984 48.0386 16.8282 46.6198 16.6085M6.6198 16.6085L6.62222 7.45455C6.62222 6.00833 7.19656 4.62131 8.21896 3.59846C9.24137 2.5756 10.6281 2.00064 12.0743 2H21.478C22.4421 2.00085 23.3664 2.38452 24.0477 3.06667L29.1919 8.20606C29.8732 8.88821 30.7975 9.27188 31.7616 9.27273H41.1653C42.6119 9.27273 43.9993 9.8474 45.0222 10.8703C46.0451 11.8933 46.6198 13.2806 46.6198 14.7273V16.6085" stroke="#9CA3AF" stroke-width="3" stroke-linecap="round" stroke-linejoin="round"/>
<path d="M14 25H40" stroke="#9CA3AF" stroke-width="3" stroke-linecap="round"/>
<path d="M16.6 33.6666H37.4" stroke="#9CA3AF" stroke-width="3" stroke-linecap="round"/>
</svg>
