<svg width="35" height="44" viewBox="0 0 35 44" fill="none" xmlns="http://www.w3.org/2000/svg">
<path d="M32.7692 26.6154V21.2308C32.7692 19.3947 32.0398 17.6337 30.7415 16.3354C29.4432 15.0371 27.6823 14.3077 25.8462 14.3077H22.7692C22.1572 14.3077 21.5702 14.0646 21.1374 13.6318C20.7047 13.199 20.4615 12.612 20.4615 12V8.92308C20.4615 7.08696 19.7321 5.32605 18.4338 4.02772C17.1355 2.72939 15.3746 2 13.5385 2H9.69231M9.69231 28.1538H25.0769M9.69231 34.3077H17.3846M14.3077 2H4.30769C3.03385 2 2 3.03385 2 4.30769V39.6923C2 40.9662 3.03385 42 4.30769 42H30.4615C31.7354 42 32.7692 40.9662 32.7692 39.6923V20.4615C32.7692 15.5652 30.8242 10.8695 27.362 7.40726C23.8998 3.94505 19.204 2 14.3077 2Z" stroke="#111827" stroke-width="3" stroke-linecap="round" stroke-linejoin="round"/>
</svg>
