<svg width="52" height="44" viewBox="0 0 52 44" fill="none" xmlns="http://www.w3.org/2000/svg">
<path d="M8.10878 17.2869C7.47688 22.1242 7.10035 26.9915 6.98076 31.8685C13.5945 34.6311 19.927 38.0239 25.8906 42C31.855 38.0238 38.1883 34.631 44.8028 31.8685C44.6831 26.9915 44.3066 22.1242 43.6748 17.2869M43.6748 17.2869C45.685 16.6115 47.7228 15.9866 49.7813 15.4168C42.2839 10.1609 34.2807 5.66639 25.8906 2C17.5005 5.66716 9.49733 10.1625 2 15.4191C4.0522 15.9857 6.08846 16.6085 8.10648 17.2869C14.2374 19.3481 20.186 21.9163 25.8906 24.9648C31.5945 21.9163 37.5446 19.3481 43.6748 17.2869ZM13.8293 28.4362C14.2863 28.4362 14.7245 28.2546 15.0477 27.9315C15.3708 27.6084 15.5524 27.1701 15.5524 26.7131C15.5524 26.2561 15.3708 25.8179 15.0477 25.4947C14.7245 25.1716 14.2863 24.9901 13.8293 24.9901C13.3723 24.9901 12.9341 25.1716 12.6109 25.4947C12.2878 25.8179 12.1063 26.2561 12.1063 26.7131C12.1063 27.1701 12.2878 27.6084 12.6109 27.9315C12.9341 28.2546 13.3723 28.4362 13.8293 28.4362ZM13.8293 28.4362V19.9932C17.7274 17.5702 21.7537 15.36 25.8906 13.3721M9.79278 39.9071C11.0747 38.6283 12.0912 37.1089 12.7839 35.436C13.4766 33.7631 13.8319 31.9698 13.8293 30.1592V26.7131" stroke="#111827" stroke-width="3" stroke-linecap="round" stroke-linejoin="round"/>
</svg>
